<svg width="1475" height="293" viewBox="0 0 1475 293" fill="none" xmlns="http://www.w3.org/2000/svg">
<path fill-rule="evenodd" clip-rule="evenodd" d="M878 13V208L990.764 216.7L945.238 13H878Z" fill="#030303"/>
<path fill-rule="evenodd" clip-rule="evenodd" d="M768 1V196L880.764 204.7L835.238 1H768Z" fill="#030303"/>
<path fill-rule="evenodd" clip-rule="evenodd" d="M718 33V228L830.764 236.7L785.238 33H718Z" fill="#030303"/>
<path fill-rule="evenodd" clip-rule="evenodd" d="M68.5981 285.5L0 218.5L48.5 1.70007H140.69L178.778 44.5001H193.867L205.5 66.0001L225 1.70007H307L321.5 13.0001L326 1.70007H398.436L409.5 13.0001L412.5 1.70007H490L498.5 45.5001H504.5L514 69.5001L524 1.70007L605.341 1.00007L605.754 1.70007L604.796 0.890621L791.5 1.00007L799.764 78.0001L797.663 127.7H794.161L796.962 152.2L794.861 205.4H790.659L794.161 232L792.06 287.3H608.556L606.454 280.3L605.754 287.3H516.804L495.792 243.9L489.488 287.3H401.938L397.736 280.3L396.335 287.3H310.186L305.284 281L303.883 287.3H217.734L181.313 245.3H158.901L153.298 239.7L146.989 285.5H68.5981Z" fill="#030303"/>
<path fill-rule="evenodd" clip-rule="evenodd" d="M1069.42 289.5L1070.82 286.3L1070.12 289.5H1140.47L1143.27 284.2L1143.97 289.5H1224.92L1228.42 284.9L1228.61 290H1331.86L1336.58 284.9L1337.48 290.14H1418L1475 219.5L1410 7.15852e-05L1343.3 0L1333.5 40.5L1331.5 46.5L1328.5 56.5L1325.5 47.0001L1311 7.15852e-05H1133.07L1113.5 25.5001L1095.5 7.15852e-05H978.365L970.661 84.0001L977.665 289.5H1069.42Z" fill="#030303"/>
<path fill-rule="evenodd" clip-rule="evenodd" d="M793 219.8L801 1L987.01 0L988.411 51.8L982.107 133.7H895.958L895.258 161.7H991.913L993.313 219.8L986.309 288.5H802.105L793 219.8Z" fill="#030303"/>
<path fill-rule="evenodd" clip-rule="evenodd" d="M17.245 217.7C11.6419 217.7 10.2411 221.2 14.4435 224.7L64.872 273C69.0744 277.2 77.4792 280 83.0823 280H126.507C132.11 280 133.511 276.5 130.009 272.3L85.8839 225.4C81.6815 221.2 73.9772 217.7 68.374 217.7H17.245ZM180.943 217.7C175.34 217.7 173.239 221.2 177.441 225.4L216.664 271.6C220.166 275.8 227.87 279.3 234.174 279.3H279.699C285.303 279.3 287.404 275.8 283.902 270.9L249.582 225.4C246.08 220.5 238.376 217 232.773 217L180.943 217.7Z" fill="url(#paint0_linear_164_3)"/>
<path d="M122.11 146.637C117.908 143.137 119.309 139.637 124.912 139.637H166.5C172.103 139.637 173.239 139.3 177.441 143.5L220.166 194.237C223.668 198.437 222.267 201.937 216.664 201.937H190.749C185.146 201.937 176.741 199.137 172.539 194.937L122.11 146.637Z" fill="url(#paint1_linear_164_3)"/>
<path fill-rule="evenodd" clip-rule="evenodd" d="M294.212 217.501C288.609 217.501 286.508 221.001 290.01 225.901L322.929 271.401C326.431 276.301 334.135 279.801 339.738 279.801H384.564C390.167 279.801 392.268 275.601 389.467 270.701L361.45 226.601C358.649 221.701 350.944 217.501 345.341 217.501H294.212ZM386.405 218.8C380.802 218.8 377.665 221.001 380.467 225.901L407.082 270.001C409.883 274.901 417.588 279.101 423.191 279.101H467.316C472.919 279.101 475.721 274.901 472.919 270.001L451.907 226.601C449.105 221.701 444.804 218.8 438.5 218.8H386.405ZM511.33 219C505.727 219 502.336 221.001 504.437 226.601L524.748 270.001C526.85 274.901 533.854 279.801 539.457 279.801H584.982C590.586 279.801 594.088 275.601 591.986 270.001L575.877 226.601C573.776 221.001 568.062 219 562.459 219H511.33ZM811.912 219.5C806.309 219.5 802.106 221.701 802.807 227.301L807.009 269.301C807.709 274.901 812.612 279.801 818.916 279.801H956.894C962.497 279.801 968.1 274.901 968.801 269.301L973.703 227.301C974.404 221.701 970.201 219.5 964.598 219.5H811.912ZM1005.22 216.801C999.618 216.801 994.604 221.701 993.903 227.301L989.001 268.601C988.3 274.201 992.397 277.701 998.001 277.701H1086C1091.6 277.701 1094.99 272.101 1095.7 266.501L1105.5 224.501C1106.9 218.901 1107.1 216.801 1101.5 216.801H1005.22ZM1127.5 194.201C1121.9 194.201 1115.01 197.701 1114.31 203.301L1104.5 244.601C1103.1 250.201 1103.2 255.101 1109.5 255.101H1117.9C1123.5 255.101 1129.81 250.901 1131.91 245.301L1146.62 204.001C1148.72 198.401 1145.21 194.201 1139.61 194.201H1127.5ZM1188.94 218.101C1183.34 218.101 1177.03 222.301 1174.93 227.901L1160.22 270.601C1158.12 276.201 1161.62 280.401 1167.23 280.401H1212.05C1217.65 280.401 1224.66 276.201 1226.76 270.601L1247.07 227.201C1249.17 222.301 1246.68 218.101 1240.38 218.101H1188.94ZM1276.8 220.101C1271.19 220.101 1264.19 224.301 1261.39 229.201L1240.38 272.601C1237.57 277.501 1240.38 281.701 1245.98 281.701H1292.2C1297.81 281.701 1304.81 277.501 1307.61 272.601L1332.83 228.501C1335.63 223.601 1334.6 220.101 1329 220.101H1276.8ZM1400.65 220.101C1395.05 220.101 1388.05 224.301 1384.54 229.201L1357.23 273.301C1354.43 278.201 1356.53 282.401 1362.13 282.401H1407.66C1413.26 282.401 1420.96 278.901 1424.47 274.001L1456.68 228.501C1460.19 223.601 1458.09 220.101 1452.48 220.101H1400.65Z" fill="url(#paint2_linear_164_3)"/>
<path d="M993.903 227.301C994.604 221.701 999.618 216.801 1005.22 216.801H1101.5C1107.1 216.801 1106.9 218.901 1105.5 224.501L1095.7 266.501C1094.99 272.101 1091.6 277.701 1086 277.701H998.001C992.397 277.701 988.3 274.201 989.001 268.601L993.903 227.301Z" fill="url(#paint3_linear_164_3)"/>
<path fill-rule="evenodd" clip-rule="evenodd" d="M766.191 220.2C771.794 220.2 777.397 225.1 778.097 230.7L783 272C783.7 277.6 779.498 282.5 773.895 282.5H729.069C723.466 282.5 717.163 277.6 716.462 272L706.657 230C705.256 224.4 706.897 220.2 712.5 220.2L766.191 220.2ZM663.034 220.2C668.637 220.2 674.941 225.1 675.641 230.7L685.446 272C686.847 277.6 683.345 282.5 677.042 282.5H632.216C626.613 282.5 620.309 278.3 618.208 272.7L603.5 231.4C601.399 225.8 606.897 220.2 612.5 220.2H663.034Z" fill="url(#paint4_linear_164_3)"/>
<path d="M778.097 230.7C777.397 225.1 771.794 220.2 766.191 220.2L712.5 220.2C706.897 220.2 705.256 224.4 706.657 230L716.462 272C717.163 277.6 723.466 282.5 729.069 282.5H773.895C779.498 282.5 783.7 277.6 783 272L778.097 230.7Z" fill="url(#paint5_linear_164_3)"/>
<path fill-rule="evenodd" clip-rule="evenodd" d="M162.119 179.2L173.325 138.6H122.196L111.69 178.5H88.5773L78.7718 217H11.5337L58.4603 13.3H131.302L109.589 99.4001H135.504L146.71 57.4001H193.637L181.73 100.1L208.345 99.4001L234.26 13.3H305L239.863 216.3H174.026L184.532 179.9L162.119 179.2Z" fill="url(#paint6_linear_164_3)"/>
<path fill-rule="evenodd" clip-rule="evenodd" d="M397.764 13L357.141 216.7H285L330.526 13H397.764Z" fill="url(#paint7_linear_164_3)"/>
<path fill-rule="evenodd" clip-rule="evenodd" d="M1138 13L1178.62 216.7H1250.76L1205.24 13H1138Z" fill="url(#paint8_linear_164_3)"/>
<path fill-rule="evenodd" clip-rule="evenodd" d="M487.962 152.3L494.266 110.3H468.351L450.841 218.1H378L416.522 14.4H483.76L477.456 52.2L500.569 52.9L494.966 92.1H520.881L532.087 14.4H599.325L575.512 218.1H503.371L512.476 153L487.962 152.3Z" fill="url(#paint9_linear_164_3)"/>
<path fill-rule="evenodd" clip-rule="evenodd" d="M1352.36 152.3L1346.06 110.3H1367.5L1389.48 218.1H1462.33L1401.5 14.4H1356.57L1362.87 52.2L1339.76 52.9L1345.36 92.1H1316.5L1296 14.4H1233L1252.5 118L1269.5 218.1H1336.95L1325.5 152.3H1352.36Z" fill="url(#paint10_linear_164_3)"/>
<path d="M691.614 14H618.899L603.399 218.972H672.211L677.131 167H690.12L688.399 188.465H708.389L705.396 218.936L776.373 218.972L778.7 140.5H750.399L751.35 125.116H729.399L731.193 100.304H751.804L753.899 75H782.123L785.399 14H725.526L723.316 36.5H704.664L702.263 53.5H687.875L691.614 14Z" fill="url(#paint11_linear_164_3)"/>
<path fill-rule="evenodd" clip-rule="evenodd" d="M965.5 175L971.998 217.7H799L812 14L959.899 14.9132L963.401 50.6132L875.343 49.7V91.7L954.768 92.7L963.401 130.9H875.343V175H965.5Z" fill="url(#paint12_linear_164_3)"/>
<path d="M1084.5 13L1100.09 37.5L1120.5 45L1149.5 193.121H1115L1105 214.5H992.5L978 13H1084.5ZM1100.09 167.768L1084.5 56.9245H1018.5L1031.94 167.768H1100.09Z" fill="url(#paint13_linear_164_3)"/>
<path fill-rule="evenodd" clip-rule="evenodd" d="M68.3456 253.251C63.4428 251.851 64.1432 251.151 69.046 251.151C73.9488 251.851 81.6531 252.551 85.8555 253.251C90.0579 253.951 89.3575 254.651 85.1551 255.351C80.2523 255.351 72.548 254.651 68.3456 253.251ZM302.979 227.351C298.776 223.151 298.776 223.851 302.278 228.751L305.08 232.251C308.582 237.151 313.484 242.051 316.286 244.151C319.088 246.251 319.088 244.151 315.586 240.651C312.084 237.151 306.481 230.851 302.979 227.351V227.351ZM397.532 216.851C396.131 216.851 396.832 220.351 398.933 224.551C401.034 228.751 401.734 228.751 401.034 224.551C400.334 220.351 398.933 216.851 397.532 216.851ZM534.109 263.751C529.907 263.051 531.308 262.351 536.911 260.951L540.413 260.251C546.016 259.551 548.818 259.551 546.016 261.651C543.215 263.051 537.611 264.451 534.109 263.751ZM628.663 224.551C626.562 221.751 625.861 223.851 627.262 228.051C627.963 232.951 630.764 239.951 632.865 244.151C634.967 248.351 635.667 246.951 634.266 241.351L633.566 239.251C633.566 233.651 630.764 226.651 628.663 224.551ZM943.141 232.251C942.441 229.451 941.04 229.451 939.639 233.651C938.238 237.851 937.538 244.151 937.538 249.051C937.538 253.951 938.939 253.251 941.04 247.651C943.141 242.751 943.842 235.751 943.141 232.251ZM838.782 211.951C838.082 209.151 835.28 209.151 833.879 213.351C831.778 216.851 834.58 221.751 839.482 224.551C844.385 227.351 846.486 226.651 844.385 223.151C842.284 220.351 839.482 215.451 838.782 211.951V211.951ZM1014.58 265.151C1009.68 263.751 1011.08 263.051 1016.68 263.051C1022.29 263.051 1030.69 264.451 1035.59 265.851C1040.5 267.251 1039.1 268.651 1033.49 267.951C1027.19 267.951 1018.78 266.551 1014.58 265.151ZM1132.95 224.551C1132.25 222.451 1130.85 224.551 1129.45 228.051C1128.05 231.551 1128.05 233.651 1130.15 231.551C1132.25 229.451 1133.65 225.951 1132.95 224.551ZM1247.11 220.351C1246.41 218.251 1245.01 220.351 1243.61 223.851C1242.21 228.051 1242.21 229.451 1244.31 227.351C1246.41 225.251 1247.81 221.751 1247.11 220.351ZM1228.9 254.651C1223.3 253.951 1224 252.551 1229.6 251.851H1231.7C1237.31 251.151 1244.31 251.851 1247.11 253.951C1249.91 255.351 1249.21 256.751 1245.01 256.751C1241.51 256.751 1234.51 255.351 1228.9 254.651V254.651ZM1397 253.951C1392.1 254.651 1392.1 253.251 1397 251.851C1401.9 250.451 1410.31 249.751 1415.91 250.451L1420.81 251.151C1426.41 251.851 1426.41 252.551 1420.81 252.551H1415.91C1410.31 253.251 1401.2 253.951 1397 253.951V253.951Z" fill="#5A5558"/>
<path opacity="0.44" d="M57.606 62C50.8403 62 46.3299 61.25 47.0817 59.75C47.8334 58.25 53.0956 56.75 59.1094 56H108.724C114.738 56 120 57.5 120 59C120 60.5 114.738 62 108.724 62H57.606Z" fill="#030303"/>
<path opacity="0.44" fill-rule="evenodd" clip-rule="evenodd" d="M51.0159 162.8C53.1171 157.2 49.6151 153 44.0119 153H33.506C27.9028 153 26 154.504 26 155.904C26 157.304 27.9028 157.2 33.506 157.2H37.7083C43.3115 157.2 46.8135 161.4 44.7123 167L34.2063 198.5C32.1052 204.1 35.6071 208.3 41.2103 208.3H76.2302C81.8333 208.3 81.5 207.9 81.5 206.5C81.5 205.1 81.8333 204.1 76.2302 204.1H46.8135C41.2103 204.1 37.7083 199.9 39.8095 194.3V193.6C41.9107 188 47.5139 183.8 53.8175 183.8H80.4325C86.0357 183.8 88.5 183.4 88.5 182C88.5 180.6 86.0357 179.6 80.4325 179.6H55.2183C49.6151 179.6 46.1131 175.4 48.2143 169.8L51.0159 162.8ZM249.929 68.3C250.629 62.7 247.127 57.8 240.823 57.8H231.718C226.115 57.8 220.512 58.5 220.512 59.9C219.812 61.3 224.714 62 230.317 62H235.921C241.524 62 245.726 66.9 245.026 72.5L243.625 85.8C242.925 91.4 237.321 96.3 231.718 96.3H219.5C213.897 96.3 208.994 97 208.994 98.4C208.994 99.8 213.897 100.5 219.5 100.5H267C272.603 100.5 277.506 99.8 277.506 98.4C277.506 97 272.603 96.3 267 96.3H256.933C251.329 96.3 247.127 91.4 247.827 85.8L249.929 68.3ZM312.964 204.1C313.665 198.5 313.665 195.7 311.564 198.5C310.163 201.3 307.361 208.3 306.661 213.9L305.26 219.5C303.859 225.1 305.96 233.5 309.462 238.4L310.863 240.5C314.365 245.4 319.268 251 322.069 253.1C324.871 255.2 324.871 253.1 321.369 248.2L314.365 237.7C310.863 232.8 309.462 224.4 310.163 218.8L312.964 204.1ZM384.405 65.5C384.405 64.1 379.502 63.4 373.899 63.4H357.089C351.486 63.4 348.685 64.1 351.486 65.5C354.288 66.2 361.292 67.6 366.895 67.6H373.899C379.502 67.6 384.405 66.9 384.405 65.5ZM411.72 214.6C413.121 209 412.421 206.9 411.02 209.7C408.919 212.5 406.817 217.4 406.117 221.6C405.417 225.1 406.117 232.1 407.518 236.3C408.919 240.5 412.421 246.1 413.821 248.9C415.923 251 415.923 248.9 413.821 243.3L412.421 237.7C410.319 232.1 410.319 223 411.72 217.4V214.6ZM394.911 162.1C389.308 162.1 384.405 162.8 384.405 163.5C384.405 164.2 389.308 165.6 394.911 166.3L446.04 169.1C451.643 169.1 457.946 171.9 459.347 174C460.748 176.8 463.55 178.2 464.25 177.5C464.95 176.8 464.25 174 462.149 170.5C460.048 167.7 453.744 164.9 448.141 164.2L394.911 162.1ZM450.242 58.5C452.343 59.9 458.647 61.3 464.25 61.3H466.351C471.954 61.3 476.857 60.6 476.857 59.2C476.857 57.8 471.954 57.1 466.351 56.4H456.546C450.942 56.4 448.141 57.1 450.242 58.5ZM514.679 163.5C509.075 163.5 504.173 164.9 504.173 166.3C504.173 167.7 509.075 168.4 514.679 168.4L543.395 167C548.998 167 553.2 171.2 552.5 176.8L546.196 217.4C545.496 223 546.196 232.1 547.597 237.7L548.298 240.5C549.698 246.1 553.2 253.1 555.302 255.9C557.403 258.7 558.103 257.3 556.002 251.7L551.8 237.7C550.399 232.1 549.698 223 550.399 217.4L557.403 172.6C558.103 167 554.601 162.1 548.298 162.8L514.679 163.5ZM524.484 57.8C524.484 59.2 528.686 60.6 534.29 62L584.718 67.6C590.321 68.3 595.224 67.6 595.224 66.9C595.224 65.5 590.321 64.1 584.718 63.4L534.99 57.8C529.387 56.4 524.484 56.4 524.484 57.8ZM638.649 192.2C638.649 186.6 634.446 181.7 628.843 181.7H612.034C606.431 181.7 601.528 182.4 601.528 183.8C601.528 185.2 606.431 185.9 612.034 185.9H623.94C629.544 185.9 634.446 190.8 633.746 196.4L633.046 216.7C633.046 222.3 633.746 231.4 635.147 237L637.948 248.9C639.349 254.5 642.151 261.5 643.552 264.3C644.952 267.1 645.653 265 644.252 259.4L639.349 236.3C637.948 230.7 637.248 221.6 637.248 215.3L638.649 192.2ZM612.034 83.7C612.034 85.1 616.936 85.8 622.54 85.8H638.649C644.252 85.8 651.256 84.4 654.058 83C656.859 81.6 654.058 80.2 648.454 80.9L622.54 81.6C616.936 80.9 612.034 82.3 612.034 83.7ZM713.101 45.5C713.101 39.9 711.7 35 710.3 35C708.899 35 708.198 39.9 708.198 45.5V65.1C708.198 70.7 709.599 72.8 711 70C712.401 67.2 713.802 59.5 713.101 53.9V45.5ZM768.222 18.6C768.222 24.2 763.319 28.4 757.716 28.4H745.109C739.506 28.4 734.603 33.3 734.603 38.9V51.5C734.603 57.1 735.304 62 736.704 62C738.105 62 738.806 57.1 738.806 51.5V43.8C738.806 38.2 743.708 33.3 749.312 33.3H761.919C767.522 33.3 772.425 28.4 772.425 22.8V20C772.425 14.4 771.724 9.5 770.323 9.5C769.623 9.5 768.222 13.7 768.222 18.6ZM938.419 197.1C937.718 199.2 937.018 205.5 937.718 211.1L938.419 218.1C939.119 223.7 939.119 233.5 938.419 239.1L932.115 282.5C931.415 288.1 932.115 293 933.516 293C934.917 293 937.018 288.1 937.718 282.5L943.321 239.8C944.022 234.2 944.022 224.4 943.321 218.8L941.921 204.8C940.52 197.8 939.119 195 938.419 197.1ZM804.643 267.1C804.643 268.5 809.546 269.2 815.149 269.2H815.849C821.452 269.2 826.355 268.5 826.355 267.1C826.355 265.7 821.452 265 815.849 265H815.149C809.546 264.3 804.643 265.7 804.643 267.1ZM719.194 156.5C721.296 157.9 728.3 160 733.903 160.7L768.923 166.3C774.526 168.4 778.728 169.8 779.429 168.4C780.129 167 775.927 164.9 770.323 162.8L725.498 155.1C719.895 155.1 717.093 155.1 719.194 156.5ZM820.752 130.6C822.853 129.2 820.052 128.5 814.448 128.5C808.845 128.5 803.942 129.9 803.942 131.3C803.942 132.7 806.744 133.4 810.246 133.4C813.748 133.4 818.651 132 820.752 130.6ZM1027.37 91.4C1027.37 94.2 1032.97 96.3 1038.58 96.3H1040.68C1046.28 96.3 1051.88 96.3 1052.58 97C1053.28 97 1056.09 99.1 1057.49 98.4C1058.89 97.7 1057.49 96.3 1056.09 94.2C1053.98 92.8 1047.68 91.4 1042.08 91.4C1036.47 91.4 1031.57 86.5 1030.87 80.9L1025.27 30.5C1024.57 24.9 1023.17 20 1021.77 20C1020.37 20 1020.37 24.9 1021.07 30.5L1025.27 70.4C1025.97 76 1021.77 80.9 1016.16 80.9H1002.86C997.252 80.9 992.349 81.6 992.349 83C992.349 84.4 997.252 85.1 1002.86 85.1H1016.16C1022.47 86.5 1027.37 88.6 1027.37 91.4ZM1021.07 195C1021.77 200.6 1019.66 209 1016.86 213.9C1014.06 218.8 1011.96 227.2 1013.36 227.9C1014.76 228.6 1016.86 224.4 1018.26 218.8C1019.66 213.9 1024.57 209 1025.27 209C1025.97 209 1025.97 204.1 1025.97 198.5L1024.57 176.8C1023.87 171.2 1028.77 166.3 1034.37 166.3H1067.99C1073.6 166.3 1078.5 165.6 1078.5 164.2C1078.5 162.8 1073.6 162.1 1067.99 162.1H1029.47C1023.87 162.1 1018.96 167 1019.66 172.6L1021.07 195ZM1096.01 177.5C1096.01 178.9 1100.91 179.6 1106.51 179.6H1128.23C1133.83 179.6 1140.83 178.9 1142.93 177.5C1145.04 176.1 1142.23 175.4 1136.63 175.4H1106.51C1100.91 175.4 1096.01 176.1 1096.01 177.5ZM1116.32 114.5C1117.72 115.9 1123.32 116.6 1128.93 116.6H1133.83C1139.43 116.6 1144.34 115.9 1144.34 114.5C1144.34 113.1 1139.43 112.4 1133.83 112.4H1124.02C1119.12 112.4 1115.62 113.8 1116.32 114.5ZM994.45 270.6C994.45 272 998.653 273.4 1004.96 273.4L1056.09 276.9C1061.69 277.6 1066.59 276.9 1066.59 275.5C1066.59 274.1 1062.39 272.7 1056.09 272.7L1004.96 269.2C999.353 268.5 995.151 269.2 994.45 270.6ZM1304.03 175.4C1298.42 175.4 1293.52 176.8 1293.52 177.5C1293.52 178.9 1298.42 179.6 1304.03 179.6L1366.36 186.6C1371.96 187.3 1376.87 186.6 1377.57 185.2C1378.27 183.8 1373.37 182.4 1367.76 182.4L1304.03 175.4ZM1215.3 178.9C1213.9 179.6 1213.2 184.5 1213.9 190.1C1213.9 190.1 1222.3 213.9 1219.5 218.8C1216.7 223.7 1216 227.9 1217.4 228.6C1218.8 229.3 1221.6 225.1 1223.7 220.2L1217.4 188.7C1217.4 183.1 1216.7 178.9 1215.3 178.9ZM1351.67 70.4C1346.06 70.4 1341.16 71.1 1341.16 72.5C1341.16 73.9 1346.06 74.6 1351.67 74.6H1410.5C1416.1 74.6 1421.01 73.9 1421.01 72.5C1421.01 71.1 1416.1 70.4 1410.5 70.4H1351.67Z" fill="#030303"/>
<defs>
<linearGradient id="paint0_linear_164_3" x1="265.296" y1="96.9856" x2="353.473" y2="267.084" gradientUnits="userSpaceOnUse">
<stop stop-color="#052108"/>
<stop offset="0.5" stop-color="#071406"/>
<stop offset="1" stop-color="#1F0008"/>
</linearGradient>
<linearGradient id="paint1_linear_164_3" x1="265.296" y1="96.9856" x2="353.473" y2="267.084" gradientUnits="userSpaceOnUse">
<stop stop-color="#052108"/>
<stop offset="0.5" stop-color="#071406"/>
<stop offset="1" stop-color="#1F0008"/>
</linearGradient>
<linearGradient id="paint2_linear_164_3" x1="1371.51" y1="167.405" x2="1381.78" y2="302.225" gradientUnits="userSpaceOnUse">
<stop stop-color="#052108"/>
<stop offset="0.5" stop-color="#071406"/>
<stop offset="1" stop-color="#1F0008"/>
</linearGradient>
<linearGradient id="paint3_linear_164_3" x1="1371.51" y1="167.405" x2="1381.78" y2="302.225" gradientUnits="userSpaceOnUse">
<stop stop-color="#052108"/>
<stop offset="0.5" stop-color="#071406"/>
<stop offset="1" stop-color="#1F0008"/>
</linearGradient>
<linearGradient id="paint4_linear_164_3" x1="616.411" y1="201.273" x2="586.568" y2="286.62" gradientUnits="userSpaceOnUse">
<stop stop-color="#052108"/>
<stop offset="0.5" stop-color="#071406"/>
<stop offset="1" stop-color="#1F0008"/>
</linearGradient>
<linearGradient id="paint5_linear_164_3" x1="616.411" y1="201.273" x2="586.568" y2="286.62" gradientUnits="userSpaceOnUse">
<stop stop-color="#052108"/>
<stop offset="0.5" stop-color="#071406"/>
<stop offset="1" stop-color="#1F0008"/>
</linearGradient>
<linearGradient id="paint6_linear_164_3" x1="158.267" y1="13.3" x2="158.267" y2="217" gradientUnits="userSpaceOnUse">
<stop offset="0.201923" stop-color="#E57834"/>
<stop offset="1" stop-color="#CEFFB3"/>
</linearGradient>
<linearGradient id="paint7_linear_164_3" x1="341.382" y1="13" x2="341.382" y2="216.7" gradientUnits="userSpaceOnUse">
<stop offset="0.201923" stop-color="#E57834"/>
<stop offset="1" stop-color="#CEFFB3"/>
</linearGradient>
<linearGradient id="paint8_linear_164_3" x1="1194.38" y1="13" x2="1194.38" y2="216.7" gradientUnits="userSpaceOnUse">
<stop offset="0.201923" stop-color="#E57834"/>
<stop offset="1" stop-color="#CEFFB3"/>
</linearGradient>
<linearGradient id="paint9_linear_164_3" x1="488.663" y1="14.4" x2="488.663" y2="218.1" gradientUnits="userSpaceOnUse">
<stop offset="0.201923" stop-color="#E57834"/>
<stop offset="1" stop-color="#CEFFB3"/>
</linearGradient>
<linearGradient id="paint10_linear_164_3" x1="1347.66" y1="14.4" x2="1347.66" y2="218.1" gradientUnits="userSpaceOnUse">
<stop offset="0.201923" stop-color="#E57834"/>
<stop offset="1" stop-color="#CEFFB3"/>
</linearGradient>
<linearGradient id="paint11_linear_164_3" x1="692.699" y1="14" x2="692.699" y2="218.972" gradientUnits="userSpaceOnUse">
<stop offset="0.201923" stop-color="#E57834"/>
<stop offset="1" stop-color="#CEFFB3"/>
</linearGradient>
<linearGradient id="paint12_linear_164_3" x1="885.499" y1="14" x2="885.499" y2="217.7" gradientUnits="userSpaceOnUse">
<stop offset="0.201923" stop-color="#E57834"/>
<stop offset="1" stop-color="#CEFFB3"/>
</linearGradient>
<linearGradient id="paint13_linear_164_3" x1="1063.75" y1="13" x2="1063.75" y2="214.5" gradientUnits="userSpaceOnUse">
<stop offset="0.201923" stop-color="#E57834"/>
<stop offset="1" stop-color="#CEFFB3"/>
</linearGradient>
</defs>
</svg>
